<?xml version="1.0" standalone="no"?>
<!DOCTYPE svg PUBLIC "-//W3C//DTD SVG 20010904//EN"
 "http://www.w3.org/TR/2001/REC-SVG-20010904/DTD/svg10.dtd">
<svg version="1.0" xmlns="http://www.w3.org/2000/svg"
 width="165.000000pt" height="165.000000pt" viewBox="0 0 165.000000 165.000000"
 preserveAspectRatio="xMidYMid meet">
<metadata>
Created by potrace 1.11, written by Peter Selinger 2001-2013
</metadata>
<g transform="translate(0.000000,165.000000) scale(0.100000,-0.100000)"
fill="#000000" stroke="none">
<path d="M594 1639 c-40 -20 -44 -48 -44 -323 l0 -263 -187 0 c-104 -1 -201
-2 -216 -2 -15 -1 -39 -12 -52 -26 l-25 -24 0 -320 0 -320 24 -28 24 -28 364
0 363 0 2 -110 c3 -132 7 -148 35 -175 21 -19 34 -20 325 -20 318 0 351 4 367
45 3 9 6 228 6 486 l0 470 -25 24 c-26 27 -23 27 -172 28 l-102 1 0 255 c0
141 0 263 0 272 -1 9 -10 27 -22 40 l-21 24 -311 2 c-203 1 -319 -2 -333 -8z"/>
</g>
</svg>
