<?xml version="1.0" encoding="utf-8"?>
<!-- Generator: Adobe Illustrator 19.0.0, SVG Export Plug-In . SVG Version: 6.00 Build 0)  -->
<svg version="1.1" id="Ebene_1" xmlns="http://www.w3.org/2000/svg" xmlns:xlink="http://www.w3.org/1999/xlink" x="0px" y="0px"
	 viewBox="0 0 297.1 61.7" style="enable-background:new 0 0 297.1 61.7;" xml:space="preserve">
<g>
	<path d="M272.7,31.3c0-6.2,2.4-10.5,6.7-10.5c4,0,6.7,4.3,7,7.1v6.5c-0.3,3-3.1,7-6.9,7C275.1,41.5,272.7,38.1,272.7,31.3
		 M287.4,14.6l-1,4.2h-0.5c-2.2-3-5.1-4.7-8.9-4.7c-7.7,0-14,6.2-14,17.3c0,10,5.7,16.4,14.2,16.4c3.8,0,7.1-1.9,8.8-4.6h0.5
		c0,0-0.1,2.2-0.1,4.6c0,4.8-2.4,7.3-6.3,7.3c-2.8,0-4.8-1.5-5.1-4h-9.8c0.9,5.2,4.8,10.4,15.1,10.4c8.7,0,15.7-4.8,15.7-14V23.6
		c0-2.4,0.6-6.8,1.1-9H287.4z M226.9,48.6h10V29c0.9-4.6,3.3-7.9,6.5-7.9c2.4,0,4,1.7,4,5v22.6h10.1V26.4c0-9.4-5.3-12.4-10.6-12.4
		c-4.8,0-7.7,2.7-9.8,5.6h-0.5l-0.1-5h-9.7c0,0,0.1,2.8,0.1,5.7V48.6z M207,48.6h9.9v-34H207V48.6z M206.4,4.6
		c0,3.3,2.5,5.2,5.5,5.2c3,0,5.6-1.9,5.6-5.2c0-3.2-2.6-5.3-5.6-5.3C208.9-0.7,206.4,1.4,206.4,4.6 M191,31.7
		c0,6.2-2.2,10.8-6.6,10.8c-4,0-6.7-4.4-7-7.2v-7.8c0.3-3,2.9-7,6.9-7C188.7,20.6,191,24.9,191,31.7 M167.3,60.9h9.9V48.6
		c0-2-0.1-3.8-0.1-3.8h0.5c2.2,3,5.3,4.4,9.2,4.4c7.9,0,13.9-6.7,13.9-17.5c0-10.6-5.5-17.8-14.3-17.8c-3.6,0-7.5,1.9-9.4,5.1h-0.5
		l-0.1-4.4h-9.4c0,0,0.3,3.1,0.3,6.3L167.3,60.9z M135.5,21.4h6.2v17.7c0,6.7,3.7,10.2,10.4,10.2c3,0,5.9-1.2,7.6-2.3l0.1-6.6
		c-1.6,0.6-3.5,1.2-5.4,1.2c-1.7,0-2.8-1.1-2.8-2.8V21.4h8.3v-6.9h-8.4V4.1h-7.3l-2.5,10.5h-6.2V21.4z M103.5,38.7
		c0.4,8.5,7.9,11,14.5,11c7.6,0,14.3-3.7,14.3-10.8c0-6.5-5.4-9.1-12.6-11.2c-3.6-1.1-6-1.8-6-4.2c0-2.2,1.9-3.5,4.1-3.5
		c1.9,0,4.4,0.9,4.4,4.1h9.2c-0.4-7.8-6.9-10.3-13.5-10.3c-7.7,0-13.8,4.3-13.8,10.8c0,6.5,6.1,9,13.1,11c3.3,0.9,5.5,1.9,5.5,4.2
		c0,1.9-1.6,3.4-4.4,3.4c-3.2,0-5.4-2-5.2-4.5H103.5z M95.7,14.6H85.6v19.8c-0.9,4.6-3.3,7.9-6.5,7.9c-2.4,0-4-1.7-4-5V14.6H65v22.6
		c0,9.4,5.2,12.2,10.5,12.2c4.8,0,7.7-2.7,9.8-5.6h0.5l0.1,4.8h9.9c0,0-0.3-3.2-0.3-6.3V14.6z M36.9,48.6h9.9V34.7
		c0-7.1,2.9-12.2,9-12.2c1.3,0,2.6,0.4,3.6,0.9v-8.5c-1-0.5-2.2-0.9-4-0.9c-5.2,0-7.7,5.4-8.9,9.8h-0.5l-0.5-9.1h-9.1
		c0.5,2.6,0.7,6,0.7,9.1V48.6z M23.6,48.6V8.1h13.1V0H0v8.1h13.1v40.5H23.6z"/>
</g>
</svg>
